<svg width="182" height="168" viewBox="0 0 182 168" fill="none" xmlns="http://www.w3.org/2000/svg">
<g filter="url(#filter0_d_0_1373)">
<rect x="44" y="5" width="93" height="93" rx="24" fill="white"/>
</g>
<path d="M86.2646 30.738L109.506 53.9794C110.58 55.0534 110.58 56.8147 109.506 57.9102C108.432 58.9842 106.692 59.0057 105.597 57.9317L105.575 57.9102C104.501 56.8577 102.783 56.8792 101.709 57.9317L88.477 71.1634C87.403 72.2374 85.6631 72.2374 84.5891 71.1634C83.5151 70.0894 83.5151 68.3495 84.5891 67.2755L97.8853 53.9794C98.9163 52.9483 98.9163 51.2514 97.8853 50.2204L97.7564 50.0915C96.7254 49.0604 95.0284 49.0604 93.9974 50.0915L74.7727 69.3161C73.6987 70.3901 71.9589 70.3901 70.8848 69.3161C70.3478 68.7791 70.0901 68.0703 70.0901 67.3829C70.0901 66.6741 70.3478 65.9867 70.8848 65.4497L90.0665 46.268C90.6035 45.731 90.8613 45.0222 90.8613 44.3348C90.8613 43.626 90.6035 42.9386 90.0665 42.4016C88.9925 41.3276 87.2527 41.3276 86.1787 42.4016L76.8993 51.681C75.8253 52.755 74.0854 52.755 73.0114 51.681C72.4744 51.144 72.2166 50.4352 72.2166 49.7478C72.2166 49.039 72.4959 48.3516 73.0114 47.8146L82.3552 38.4708C83.3862 37.4397 83.3862 35.7428 82.3552 34.7118L82.3122 34.6688C81.7752 34.1318 81.496 33.423 81.496 32.7141C81.496 32.0053 81.7752 31.2964 82.3122 30.7594C83.4292 29.664 85.1906 29.664 86.2646 30.738Z" fill="#FE724C"/>
<path d="M111.073 29.1914C116.765 34.8836 117.431 43.6905 113.07 50.113C112.168 51.4448 110.278 51.6381 109.118 50.4996L89.7645 31.1461C88.6261 30.0077 88.7979 28.1174 90.1511 27.1938C96.5737 22.8333 105.38 23.4992 111.073 29.1914Z" fill="#FE724C"/>
<path d="M116.071 28.0325C117.136 26.9671 117.136 25.2399 116.071 24.1746C115.006 23.1092 113.278 23.1092 112.213 24.1746C111.148 25.2399 111.148 26.9671 112.213 28.0325C113.278 29.0978 115.006 29.0978 116.071 28.0325Z" fill="#FE724C"/>
<rect x="63.943" y="57.1569" width="6.5122" height="5.44227" rx="2.72114" transform="rotate(-45 63.943 57.1569)" fill="#FE724C"/>
<rect x="62.1455" y="74.2335" width="6.5122" height="5.44227" rx="2.72114" transform="rotate(-45 62.1455 74.2335)" fill="#FE724C"/>
<rect x="75.6271" y="76.0311" width="6.5122" height="5.44227" rx="2.72114" transform="rotate(-45 75.6271 76.0311)" fill="#FE724C"/>
<path d="M1.63047 125.32H17.3505V132.32H10.1505V135.28H17.2305V141.92H10.1505V152H1.63047V125.32ZM6.67047 148.8V139.08H14.2705V138.12H6.67047V129.48H14.6705V128.52H5.63047V148.8H6.67047ZM18.9602 138.68C18.9602 136.76 19.3202 134.947 20.0402 133.24C20.7868 131.533 21.7868 130.053 23.0402 128.8C24.3202 127.52 25.8135 126.52 27.5202 125.8C29.2268 125.053 31.0402 124.68 32.9602 124.68C34.8802 124.68 36.6935 125.053 38.4002 125.8C40.1068 126.52 41.5868 127.52 42.8402 128.8C44.1202 130.053 45.1202 131.533 45.8402 133.24C46.5868 134.947 46.9602 136.76 46.9602 138.68C46.9602 140.6 46.5868 142.413 45.8402 144.12C45.1202 145.827 44.1202 147.32 42.8402 148.6C41.5868 149.853 40.1068 150.853 38.4002 151.6C36.6935 152.32 34.8802 152.68 32.9602 152.68C31.0402 152.68 29.2268 152.32 27.5202 151.6C25.8135 150.853 24.3202 149.853 23.0402 148.6C21.7868 147.32 20.7868 145.827 20.0402 144.12C19.3202 142.413 18.9602 140.6 18.9602 138.68ZM22.7202 138.68C22.7202 140.093 22.9868 141.427 23.5202 142.68C24.0535 143.907 24.7868 144.987 25.7202 145.92C26.6535 146.853 27.7335 147.587 28.9602 148.12C30.2135 148.653 31.5468 148.92 32.9602 148.92C34.3735 148.92 35.6935 148.653 36.9202 148.12C38.1735 147.587 39.2668 146.853 40.2002 145.92C41.1335 144.987 41.8668 143.907 42.4002 142.68C42.9335 141.427 43.2002 140.093 43.2002 138.68C43.2002 137.267 42.9335 135.947 42.4002 134.72C41.8668 133.467 41.1335 132.373 40.2002 131.44C39.2668 130.507 38.1735 129.773 36.9202 129.24C35.6935 128.707 34.3735 128.44 32.9602 128.44C31.5468 128.44 30.2135 128.707 28.9602 129.24C27.7335 129.773 26.6535 130.507 25.7202 131.44C24.7868 132.373 24.0535 133.467 23.5202 134.72C22.9868 135.947 22.7202 137.267 22.7202 138.68ZM27.3602 138.68C27.3602 139.453 27.5068 140.187 27.8002 140.88C28.0935 141.547 28.4935 142.133 29.0002 142.64C29.5068 143.147 30.0935 143.547 30.7602 143.84C31.4535 144.133 32.1868 144.28 32.9602 144.28C33.7335 144.28 34.4535 144.133 35.1202 143.84C35.8135 143.547 36.4135 143.147 36.9202 142.64C37.4268 142.133 37.8268 141.547 38.1202 140.88C38.4135 140.187 38.5602 139.453 38.5602 138.68C38.5602 137.907 38.4135 137.187 38.1202 136.52C37.8268 135.827 37.4268 135.227 36.9202 134.72C36.4135 134.213 35.8135 133.813 35.1202 133.52C34.4535 133.227 33.7335 133.08 32.9602 133.08C32.1868 133.08 31.4535 133.227 30.7602 133.52C30.0935 133.813 29.5068 134.213 29.0002 134.72C28.4935 135.227 28.0935 135.827 27.8002 136.52C27.5068 137.187 27.3602 137.907 27.3602 138.68ZM32.9602 147.88C31.6802 147.88 30.4802 147.64 29.3602 147.16C28.2668 146.68 27.2935 146.027 26.4402 145.2C25.6135 144.347 24.9602 143.373 24.4802 142.28C24.0002 141.16 23.7602 139.96 23.7602 138.68C23.7602 137.4 24.0002 136.213 24.4802 135.12C24.9602 134 25.6135 133.027 26.4402 132.2C27.2935 131.347 28.2668 130.68 29.3602 130.2C30.4802 129.72 31.6802 129.48 32.9602 129.48C34.2402 129.48 35.4268 129.72 36.5202 130.2C37.6402 130.68 38.6135 131.347 39.4402 132.2C40.2935 133.027 40.9602 134 41.4402 135.12C41.9202 136.213 42.1602 137.4 42.1602 138.68C42.1602 139.96 41.9202 141.16 41.4402 142.28C40.9602 143.373 40.2935 144.347 39.4402 145.2C38.6135 146.027 37.6402 146.68 36.5202 147.16C35.4268 147.64 34.2402 147.88 32.9602 147.88ZM48.5695 138.68C48.5695 136.76 48.9295 134.947 49.6495 133.24C50.3962 131.533 51.3962 130.053 52.6495 128.8C53.9295 127.52 55.4229 126.52 57.1295 125.8C58.8362 125.053 60.6495 124.68 62.5695 124.68C64.4895 124.68 66.3029 125.053 68.0095 125.8C69.7162 126.52 71.1962 127.52 72.4495 128.8C73.7295 130.053 74.7295 131.533 75.4495 133.24C76.1962 134.947 76.5695 136.76 76.5695 138.68C76.5695 140.6 76.1962 142.413 75.4495 144.12C74.7295 145.827 73.7295 147.32 72.4495 148.6C71.1962 149.853 69.7162 150.853 68.0095 151.6C66.3029 152.32 64.4895 152.68 62.5695 152.68C60.6495 152.68 58.8362 152.32 57.1295 151.6C55.4229 150.853 53.9295 149.853 52.6495 148.6C51.3962 147.32 50.3962 145.827 49.6495 144.12C48.9295 142.413 48.5695 140.6 48.5695 138.68ZM52.3295 138.68C52.3295 140.093 52.5962 141.427 53.1295 142.68C53.6629 143.907 54.3962 144.987 55.3295 145.92C56.2629 146.853 57.3429 147.587 58.5695 148.12C59.8229 148.653 61.1562 148.92 62.5695 148.92C63.9829 148.92 65.3029 148.653 66.5295 148.12C67.7829 147.587 68.8762 146.853 69.8095 145.92C70.7429 144.987 71.4762 143.907 72.0095 142.68C72.5429 141.427 72.8095 140.093 72.8095 138.68C72.8095 137.267 72.5429 135.947 72.0095 134.72C71.4762 133.467 70.7429 132.373 69.8095 131.44C68.8762 130.507 67.7829 129.773 66.5295 129.24C65.3029 128.707 63.9829 128.44 62.5695 128.44C61.1562 128.44 59.8229 128.707 58.5695 129.24C57.3429 129.773 56.2629 130.507 55.3295 131.44C54.3962 132.373 53.6629 133.467 53.1295 134.72C52.5962 135.947 52.3295 137.267 52.3295 138.68ZM56.9695 138.68C56.9695 139.453 57.1162 140.187 57.4095 140.88C57.7029 141.547 58.1029 142.133 58.6095 142.64C59.1162 143.147 59.7029 143.547 60.3695 143.84C61.0629 144.133 61.7962 144.28 62.5695 144.28C63.3429 144.28 64.0629 144.133 64.7295 143.84C65.4229 143.547 66.0229 143.147 66.5295 142.64C67.0362 142.133 67.4362 141.547 67.7295 140.88C68.0229 140.187 68.1695 139.453 68.1695 138.68C68.1695 137.907 68.0229 137.187 67.7295 136.52C67.4362 135.827 67.0362 135.227 66.5295 134.72C66.0229 134.213 65.4229 133.813 64.7295 133.52C64.0629 133.227 63.3429 133.08 62.5695 133.08C61.7962 133.08 61.0629 133.227 60.3695 133.52C59.7029 133.813 59.1162 134.213 58.6095 134.72C58.1029 135.227 57.7029 135.827 57.4095 136.52C57.1162 137.187 56.9695 137.907 56.9695 138.68ZM62.5695 147.88C61.2895 147.88 60.0895 147.64 58.9695 147.16C57.8762 146.68 56.9029 146.027 56.0495 145.2C55.2229 144.347 54.5695 143.373 54.0895 142.28C53.6095 141.16 53.3695 139.96 53.3695 138.68C53.3695 137.4 53.6095 136.213 54.0895 135.12C54.5695 134 55.2229 133.027 56.0495 132.2C56.9029 131.347 57.8762 130.68 58.9695 130.2C60.0895 129.72 61.2895 129.48 62.5695 129.48C63.8495 129.48 65.0362 129.72 66.1295 130.2C67.2495 130.68 68.2229 131.347 69.0495 132.2C69.9029 133.027 70.5695 134 71.0495 135.12C71.5295 136.213 71.7695 137.4 71.7695 138.68C71.7695 139.96 71.5295 141.16 71.0495 142.28C70.5695 143.373 69.9029 144.347 69.0495 145.2C68.2229 146.027 67.2495 146.68 66.1295 147.16C65.0362 147.64 63.8495 147.88 62.5695 147.88ZM78.7789 152V125.32H86.1789C88.6856 125.32 90.9122 125.6 92.8589 126.16C94.8322 126.72 96.4856 127.56 97.8189 128.68C99.1789 129.8 100.206 131.2 100.899 132.88C101.619 134.533 101.979 136.453 101.979 138.64C101.979 140.827 101.619 142.76 100.899 144.44C100.206 146.093 99.1789 147.48 97.8189 148.6C96.4856 149.72 94.8322 150.573 92.8589 151.16C90.9122 151.72 88.6856 152 86.1789 152H78.7789ZM83.8189 147.84V129.48H86.1789C89.5656 129.48 92.1922 130.253 94.0589 131.8C95.9522 133.32 96.8989 135.6 96.8989 138.64C96.8989 141.68 95.9522 143.973 94.0589 145.52C92.1922 147.067 89.5656 147.84 86.1789 147.84H83.8189ZM82.7789 148.8H86.1789C90.0722 148.8 93.0056 147.92 94.9789 146.16C96.9789 144.373 97.9789 141.867 97.9789 138.64C97.9789 135.413 96.9789 132.92 94.9789 131.16C93.0056 129.4 90.0722 128.52 86.1789 128.52H82.7789V148.8ZM87.2989 144.4C89.2989 144.4 90.8456 143.933 91.9389 143C93.0322 142.04 93.5789 140.587 93.5789 138.64C93.5789 136.693 93.0322 135.253 91.9389 134.32C90.8456 133.387 89.2989 132.92 87.2989 132.92V144.4Z" fill="white"/>
<path opacity="0.6" d="M111.521 125.32H120.041V134.4H124.801V125.32H133.361V152H124.801V142.12H120.041V152H111.521V125.32ZM116.561 148.8V138.68H128.321V148.8H129.361V128.52H128.321V137.72H116.561V128.52H115.521V148.8H116.561ZM147.09 152.68C145.41 152.68 143.89 152.467 142.53 152.04C141.17 151.613 140.01 150.973 139.05 150.12C138.09 149.267 137.343 148.187 136.81 146.88C136.303 145.573 136.05 144.04 136.05 142.28V125.32H144.57V141.92C144.57 142.853 144.756 143.573 145.13 144.08C145.53 144.56 146.183 144.8 147.09 144.8C147.996 144.8 148.636 144.56 149.01 144.08C149.41 143.573 149.61 142.853 149.61 141.92V125.32H158.17V142.28C158.17 144.04 157.903 145.573 157.37 146.88C156.863 148.187 156.116 149.267 155.13 150.12C154.17 150.973 153.01 151.613 151.65 152.04C150.29 152.467 148.77 152.68 147.09 152.68ZM147.09 147.88C143.09 147.88 141.09 145.92 141.09 142V128.52H140.05V142C140.05 144.24 140.65 145.96 141.85 147.16C143.076 148.333 144.823 148.92 147.09 148.92C149.356 148.92 151.103 148.333 152.33 147.16C153.556 145.96 154.17 144.24 154.17 142V128.52H153.09V142C153.09 145.92 151.09 147.88 147.09 147.88ZM160.857 125.32H171.297C172.63 125.32 173.844 125.48 174.937 125.8C176.057 126.093 177.004 126.547 177.777 127.16C178.577 127.747 179.19 128.493 179.617 129.4C180.07 130.28 180.297 131.32 180.297 132.52C180.297 133.373 180.19 134.107 179.977 134.72C179.764 135.307 179.537 135.8 179.297 136.2C179.004 136.68 178.67 137.08 178.297 137.4C178.884 137.773 179.417 138.253 179.897 138.84C180.297 139.347 180.657 139.987 180.977 140.76C181.324 141.533 181.497 142.48 181.497 143.6C181.497 144.88 181.27 146.04 180.817 147.08C180.364 148.12 179.71 149.013 178.857 149.76C178.03 150.48 177.004 151.04 175.777 151.44C174.577 151.813 173.23 152 171.737 152H160.857V125.32ZM170.057 145.72C172.084 145.72 173.097 144.947 173.097 143.4C173.097 141.853 172.084 141.08 170.057 141.08H169.097V145.72H170.057ZM172.057 133.44C172.057 132.213 171.39 131.6 170.057 131.6H169.097V135.28H170.057C171.39 135.28 172.057 134.667 172.057 133.44ZM170.617 148.8C172.964 148.8 174.697 148.293 175.817 147.28C176.937 146.267 177.497 144.92 177.497 143.24C177.497 142.147 177.257 141.28 176.777 140.64C176.324 139.973 175.83 139.453 175.297 139.08C174.63 138.653 173.897 138.36 173.097 138.2C173.737 138.013 174.31 137.72 174.817 137.32C175.27 136.973 175.67 136.507 176.017 135.92C176.39 135.307 176.577 134.533 176.577 133.6C176.577 131.92 176.044 130.653 174.977 129.8C173.91 128.947 172.457 128.52 170.617 128.52H164.857V148.8H170.617ZM165.897 147.84V138.68H170.577C171.404 138.68 172.164 138.773 172.857 138.96C173.577 139.12 174.204 139.387 174.737 139.76C175.27 140.107 175.684 140.573 175.977 141.16C176.297 141.747 176.457 142.44 176.457 143.24C176.457 144.867 175.91 146.04 174.817 146.76C173.75 147.48 172.337 147.84 170.577 147.84H165.897ZM165.897 137.72V129.48H170.617C172.35 129.48 173.59 129.867 174.337 130.64C175.11 131.387 175.497 132.373 175.497 133.6C175.497 134.827 175.11 135.827 174.337 136.6C173.59 137.347 172.35 137.72 170.617 137.72H165.897Z" fill="white"/>
<defs>
<filter id="filter0_d_0_1373" x="9" y="0" width="163" height="163" filterUnits="userSpaceOnUse" color-interpolation-filters="sRGB">
<feFlood flood-opacity="0" result="BackgroundImageFix"/>
<feColorMatrix in="SourceAlpha" type="matrix" values="0 0 0 0 0 0 0 0 0 0 0 0 0 0 0 0 0 0 127 0" result="hardAlpha"/>
<feOffset dy="30"/>
<feGaussianBlur stdDeviation="17.5"/>
<feColorMatrix type="matrix" values="0 0 0 0 0.858333 0 0 0 0 0.284504 0 0 0 0 0.12875 0 0 0 0.5 0"/>
<feBlend mode="normal" in2="BackgroundImageFix" result="effect1_dropShadow_0_1373"/>
<feBlend mode="normal" in="SourceGraphic" in2="effect1_dropShadow_0_1373" result="shape"/>
</filter>
</defs>
</svg>
